<?xml version="1.0" encoding="UTF-8"?>
<svg xmlns="http://www.w3.org/2000/svg" width="500" height="550" viewBox="0 0 500 550">
  <text x="250" y="30" text-anchor="middle" font-size="24" font-weight="bold" fill="#334">
                Positions possibles pour le chiffre 5</text>
  <g transform="translate(50, 80)">
    <line x1="0" x2="360" y1="0" y2="0" stroke="#334" stroke-width="3"/>
    <line x1="0" x2="360" y1="40" y2="40" stroke="#334" stroke-width="1"/>
    <line x1="0" x2="360" y1="80" y2="80" stroke="#334" stroke-width="1"/>
    <line x1="0" x2="360" y1="120" y2="120" stroke="#334" stroke-width="3"/>
    <line x1="0" x2="360" y1="160" y2="160" stroke="#334" stroke-width="1"/>
    <line x1="0" x2="360" y1="200" y2="200" stroke="#334" stroke-width="1"/>
    <line x1="0" x2="360" y1="240" y2="240" stroke="#334" stroke-width="3"/>
    <line x1="0" x2="360" y1="280" y2="280" stroke="#334" stroke-width="1"/>
    <line x1="0" x2="360" y1="320" y2="320" stroke="#334" stroke-width="1"/>
    <line x1="0" x2="360" y1="360" y2="360" stroke="#334" stroke-width="3"/>
    <line x1="0" x2="0" y1="0" y2="360" stroke="#334" stroke-width="3"/>
    <line x1="40" x2="40" y1="0" y2="360" stroke="#334" stroke-width="1"/>
    <line x1="80" x2="80" y1="0" y2="360" stroke="#334" stroke-width="1"/>
    <line x1="120" x2="120" y1="0" y2="360" stroke="#334" stroke-width="3"/>
    <line x1="160" x2="160" y1="0" y2="360" stroke="#334" stroke-width="1"/>
    <line x1="200" x2="200" y1="0" y2="360" stroke="#334" stroke-width="1"/>
    <line x1="240" x2="240" y1="0" y2="360" stroke="#334" stroke-width="3"/>
    <line x1="280" x2="280" y1="0" y2="360" stroke="#334" stroke-width="1"/>
    <line x1="320" x2="320" y1="0" y2="360" stroke="#334" stroke-width="1"/>
    <line x1="360" x2="360" y1="0" y2="360" stroke="#334" stroke-width="3"/>
    <text x="20" y="26" text-anchor="middle" font-size="20" font-weight="bold" fill="#000">5</text>
    <text x="60" y="26" text-anchor="middle" font-size="20" font-weight="bold" fill="#000">3</text>
    <text x="180" y="26" text-anchor="middle" font-size="20" font-weight="bold" fill="#000">7</text>
    <text x="20" y="66" text-anchor="middle" font-size="20" font-weight="bold" fill="#000">6</text>
    <text x="140" y="66" text-anchor="middle" font-size="20" font-weight="bold" fill="#000">1</text>
    <text x="180" y="66" text-anchor="middle" font-size="20" font-weight="bold" fill="#000">9</text>
    <text x="220" y="66" text-anchor="middle" font-size="20" font-weight="bold" fill="#000">5</text>
    <text x="60" y="106" text-anchor="middle" font-size="20" font-weight="bold" fill="#000">9</text>
    <text x="100" y="106" text-anchor="middle" font-size="20" font-weight="bold" fill="#000">8</text>
    <text x="300" y="106" text-anchor="middle" font-size="20" font-weight="bold" fill="#000">6</text>
    <text x="20" y="146" text-anchor="middle" font-size="20" font-weight="bold" fill="#000">8</text>
    <text x="180" y="146" text-anchor="middle" font-size="20" font-weight="bold" fill="#000">6</text>
    <text x="340" y="146" text-anchor="middle" font-size="20" font-weight="bold" fill="#000">3</text>
    <text x="20" y="186" text-anchor="middle" font-size="20" font-weight="bold" fill="#000">4</text>
    <text x="140" y="186" text-anchor="middle" font-size="20" font-weight="bold" fill="#000">8</text>
    <text x="220" y="186" text-anchor="middle" font-size="20" font-weight="bold" fill="#000">3</text>
    <text x="340" y="186" text-anchor="middle" font-size="20" font-weight="bold" fill="#000">1</text>
    <text x="20" y="226" text-anchor="middle" font-size="20" font-weight="bold" fill="#000">7</text>
    <text x="180" y="226" text-anchor="middle" font-size="20" font-weight="bold" fill="#000">2</text>
    <text x="340" y="226" text-anchor="middle" font-size="20" font-weight="bold" fill="#000">6</text>
    <text x="60" y="266" text-anchor="middle" font-size="20" font-weight="bold" fill="#000">6</text>
    <text x="260" y="266" text-anchor="middle" font-size="20" font-weight="bold" fill="#000">2</text>
    <text x="300" y="266" text-anchor="middle" font-size="20" font-weight="bold" fill="#000">8</text>
    <text x="140" y="306" text-anchor="middle" font-size="20" font-weight="bold" fill="#000">4</text>
    <text x="180" y="306" text-anchor="middle" font-size="20" font-weight="bold" fill="#000">1</text>
    <text x="220" y="306" text-anchor="middle" font-size="20" font-weight="bold" fill="#000">9</text>
    <text x="340" y="306" text-anchor="middle" font-size="20" font-weight="bold" fill="#000">5</text>
    <text x="180" y="346" text-anchor="middle" font-size="20" font-weight="bold" fill="#000">8</text>
    <text x="300" y="346" text-anchor="middle" font-size="20" font-weight="bold" fill="#000">7</text>
    <text x="340" y="346" text-anchor="middle" font-size="20" font-weight="bold" fill="#000">9</text>
    <text x="260" y="106" text-anchor="middle" font-size="20" font-weight="bold" fill="#ec44ffff">5</text>
    <text x="60" y="146" text-anchor="middle" font-size="20" font-weight="bold" fill="#ec44ffff">5</text>
    <text x="100" y="146" text-anchor="middle" font-size="20" font-weight="bold" fill="#ec44ffff">5</text>
    <text x="140" y="146" text-anchor="middle" font-size="20" font-weight="bold" fill="#ec44ffff">5</text>
    <text x="260" y="146" text-anchor="middle" font-size="20" font-weight="bold" fill="#ec44ffff">5</text>
    <text x="300" y="146" text-anchor="middle" font-size="20" font-weight="bold" fill="#ec44ffff">5</text>
    <text x="60" y="186" text-anchor="middle" font-size="20" font-weight="bold" fill="#ec44ffff">5</text>
    <text x="100" y="186" text-anchor="middle" font-size="20" font-weight="bold" fill="#ec44ffff">5</text>
    <text x="180" y="186" text-anchor="middle" font-size="20" font-weight="bold" fill="#ec44ffff">5</text>
    <text x="260" y="186" text-anchor="middle" font-size="20" font-weight="bold" fill="#ec44ffff">5</text>
    <text x="300" y="186" text-anchor="middle" font-size="20" font-weight="bold" fill="#ec44ffff">5</text>
    <text x="60" y="226" text-anchor="middle" font-size="20" font-weight="bold" fill="#ec44ffff">5</text>
    <text x="100" y="226" text-anchor="middle" font-size="20" font-weight="bold" fill="#ec44ffff">5</text>
    <text x="140" y="226" text-anchor="middle" font-size="20" font-weight="bold" fill="#ec44ffff">5</text>
    <text x="260" y="226" text-anchor="middle" font-size="20" font-weight="bold" fill="#ec44ffff">5</text>
    <text x="300" y="226" text-anchor="middle" font-size="20" font-weight="bold" fill="#ec44ffff">5</text>
    <text x="100" y="266" text-anchor="middle" font-size="20" font-weight="bold" fill="#ec44ffff">5</text>
    <text x="140" y="266" text-anchor="middle" font-size="20" font-weight="bold" fill="#ec44ffff">5</text>
    <text x="180" y="266" text-anchor="middle" font-size="20" font-weight="bold" fill="#ec44ffff">5</text>
    <text x="60" y="346" text-anchor="middle" font-size="20" font-weight="bold" fill="#ec44ffff">5</text>
    <text x="100" y="346" text-anchor="middle" font-size="20" font-weight="bold" fill="#ec44ffff">5</text>
    <text x="140" y="346" text-anchor="middle" font-size="20" font-weight="bold" fill="#ec44ffff">5</text>
  </g>
  <g transform="translate(50, 480)">
    <rect x="0" y="0" width="20" height="20" fill="#000"/>
    <text x="25" y="15" font-size="14">Chiffres fixes (donnés initialement)</text>
    <rect x="0" y="25" width="20" height="20" fill="#0066cc"/>
    <text x="25" y="40" font-size="14">Chiffres joués</text>
    <rect x="250" y="0" width="20" height="20" fill="#ec44ffff"/>
    <text x="275" y="15" font-size="14">Positions possibles pour 5</text>
  </g>
</svg>
